<svg xmlns="http://www.w3.org/2000/svg" width="20" height="20" viewBox="0 0 20 20">
    <g fill="none" fill-rule="evenodd">
        <g>
            <g>
                <g>
                    <path fill="#0D5CB6" d="M0 0h16c2.21 0 4 1.79 4 4v16L0 0z" transform="translate(-311 -5850) translate(80 5570) translate(231 280)"/>
                    <g fill="#FFF">
                        <path d="M4.654 7.571L8.88 3.176c.22-.228.582-.235.81-.016.229.22.236.582.017.81L5.04 8.825c-.108.113-.258.176-.413.176-.176 0-.33-.076-.438-.203L2.136 6.37c-.205-.241-.175-.603.067-.808.242-.204.603-.174.808.068L4.654 7.57z" transform="translate(-311 -5850) translate(80 5570) translate(231 280) translate(8)"/>
                    </g>
                </g>
            </g>
        </g>
    </g>
</svg>
